<?xml version="1.0" encoding="utf-8"?>
<!-- Generator: Adobe Illustrator 16.0.0, SVG Export Plug-In . SVG Version: 6.00 Build 0)  -->
<!DOCTYPE svg PUBLIC "-//W3C//DTD SVG 1.1//EN" "http://www.w3.org/Graphics/SVG/1.1/DTD/svg11.dtd">
<svg version="1.1"
	 id="svg2" xmlns:svg="http://www.w3.org/2000/svg" xmlns:rdf="http://www.w3.org/1999/02/22-rdf-syntax-ns#" xmlns:dc="http://purl.org/dc/elements/1.1/" xmlns:sodipodi="http://sodipodi.sourceforge.net/DTD/sodipodi-0.dtd" xmlns:osb="http://www.openswatchbook.org/uri/2009/osb" xmlns:cc="http://creativecommons.org/ns#" xmlns:inkscape="http://www.inkscape.org/namespaces/inkscape" inkscape:version="0.48.0 r9654" sodipodi:docname="Like.svg.2011_10_09_19_35_59.0.svg"
	 xmlns="http://www.w3.org/2000/svg" xmlns:xlink="http://www.w3.org/1999/xlink" x="0px" y="0px" width="200px" height="200px"
	 viewBox="40 -59.8 200 200" enable-background="new 40 -59.8 200 200" xml:space="preserve">
<path fill="#3D5A9A" d="M140-49.8c49.6,0,90,40.4,90,90s-40.4,90-90,90c-49.6,0-90-40.4-90-90S90.4-49.8,140-49.8 M140-59.8
	C84.8-59.8,40-15,40,40.3s44.8,100,100,100c55.2,0,100-44.8,100-100S195.3-59.8,140-59.8L140-59.8z"/>
<path id="path3009" inkscape:connector-curvature="0" sodipodi:nodetypes="cccccssssscsccccscssc" fill="#3C5A99" stroke="#485C90" d="
	M142.8-24.7L143-5.5c-4.2,9.8-12.6,24.8-18.6,30.5l-0.8-1l-41.5-0.1c-2.1-0.1-4.4,2.5-4.3,4.3l4,57.3c0.1,1.9,2,4.2,3.9,4.2h37
	c1.4,0,3.4-1.5,3.5-3.4l0.2-5c1.2,1.8,4.4,4.5,7.3,4.5h49.9c6.3,0,15.9-7.2,12.7-19.3c3.5-3.1,5.7-8.3,3.5-14.9
	c3.7-3.3,6.5-9.5,3.3-15c10-9,3.5-21.6-4.2-21.6h-33.6c1.2-6,3.2-12,3.1-19.9c-0.1-6.9-4.3-16.9-7.4-22.2
	C159.9-29.5,148.2-33.7,142.8-24.7L142.8-24.7z"/>
<path id="path3764" inkscape:connector-curvature="0" sodipodi:nodetypes="ccccc" fill="#6E7FB3" d="M82.9,29.4h34.7l0.1,55.4H86.9
	L82.9,29.4z"/>
<path id="path2987" inkscape:connector-curvature="0" sodipodi:nodetypes="cssccccccccccccccccc" fill="#FFFFFF" d="M159.7,20.2
	c1.6-7,2.7-14.6,3.5-22.1c0.2-1.8,0.2-3.4-0.1-4.9c-1-6-3.3-11.3-5.6-16.7c-2.1-1.8-6.4-2.5-9.5,0.2v18.8
	c-5.3,11.2-11.3,22-18.7,31.9l-7,5.2v43.6h4.8c0,0,6.4,4.2,6.8,4c0.6,0.3,49.9,0.1,49.9,0.1c2.6,0.1,12.3-7.6,6.2-13.4
	c-0.8-0.5-0.7-2.1,0.1-2.7c3.8-0.7,8.5-8.5,3.6-12.6c-0.8-1-0.2-2.5,0.7-2.6c2.8-1.5,7.8-6.5,3.3-12.5c-0.9-0.5-0.9-1.8-0.1-2.5
	c4.3-0.6,9.8-11.2,0.7-13.8L159.7,20.2z"/>
</svg>
