<?xml version="1.0" encoding="utf-8"?>
<!-- Generator: Adobe Illustrator 16.0.0, SVG Export Plug-In . SVG Version: 6.00 Build 0)  -->
<!DOCTYPE svg PUBLIC "-//W3C//DTD SVG 1.1//EN" "http://www.w3.org/Graphics/SVG/1.1/DTD/svg11.dtd">
<svg version="1.1"
	 id="svg2" xmlns:svg="http://www.w3.org/2000/svg" xmlns:rdf="http://www.w3.org/1999/02/22-rdf-syntax-ns#" xmlns:dc="http://purl.org/dc/elements/1.1/" xmlns:sodipodi="http://sodipodi.sourceforge.net/DTD/sodipodi-0.dtd" xmlns:osb="http://www.openswatchbook.org/uri/2009/osb" xmlns:cc="http://creativecommons.org/ns#" xmlns:inkscape="http://www.inkscape.org/namespaces/inkscape" inkscape:version="0.48.0 r9654" sodipodi:docname="Like.svg.2011_10_09_19_35_59.0.svg"
	 xmlns="http://www.w3.org/2000/svg" xmlns:xlink="http://www.w3.org/1999/xlink" x="0px" y="0px" width="130.3px" height="119.8px"
	 viewBox="40.4 20.3 130.3 119.8" enable-background="new 40.4 20.3 130.3 119.8" xml:space="preserve">
<path id="path3009" inkscape:connector-curvature="0" sodipodi:nodetypes="cccccssssscsccccscssc" fill="#3C5A99" stroke="#485C90" d="
	M105.3,26.2l0.2,19c-4.2,9.7-12.5,24.6-18.4,30.2l-0.8-1l-41.1-0.1c-2.1-0.1-4.4,2.5-4.3,4.3l4,56.8c0.1,1.9,2,4.2,3.9,4.2h36.6
	c1.4,0,3.4-1.5,3.5-3.4l0.2-5c1.2,1.8,4.4,4.5,7.2,4.5h49.4c6.2,0,15.7-7.1,12.6-19.1c3.5-3.1,5.6-8.2,3.5-14.8
	c3.7-3.3,6.4-9.4,3.3-14.9c9.9-8.9,3.5-21.4-4.2-21.4h-33.3c1.2-5.9,3.2-11.9,3.1-19.7c-0.1-6.8-4.3-16.7-7.3-22
	C122.2,21.5,110.7,17.3,105.3,26.2L105.3,26.2z"/>
<path id="path3764" inkscape:connector-curvature="0" sodipodi:nodetypes="ccccc" fill="#6E7FB3" d="M46,79.8h34.4l0.1,54.9H49.9
	L46,79.8z"/>
<path id="path2987" inkscape:connector-curvature="0" sodipodi:nodetypes="cssccccccccccccccccc" fill="#FFFFFF" d="M122,70.7
	c1.6-6.9,2.7-14.5,3.5-21.9c0.2-1.8,0.2-3.4-0.1-4.9c-1-5.9-3.3-11.2-5.5-16.5c-2.1-1.8-6.3-2.5-9.4,0.2v18.6
	c-5.3,11.1-11.2,21.8-18.5,31.6l-6.9,5.2v43.2l4.8,0c0,0,6.3,4.2,6.7,4c0.6,0.3,49.4,0.1,49.4,0.1c2.6,0.1,12.2-7.5,6.1-13.3
	c-0.8-0.5-0.7-2.1,0.1-2.7c3.8-0.7,8.4-8.4,3.6-12.5c-0.8-1-0.2-2.5,0.7-2.6c2.8-1.5,7.7-6.4,3.3-12.4c-0.9-0.5-0.9-1.8-0.1-2.5
	c4.3-0.6,9.7-11.1,0.7-13.7L122,70.7z"/>
</svg>
