<?xml version="1.0" encoding="utf-8"?>
<!-- Generator: Adobe Illustrator 16.0.0, SVG Export Plug-In . SVG Version: 6.00 Build 0)  -->
<!DOCTYPE svg PUBLIC "-//W3C//DTD SVG 1.1//EN" "http://www.w3.org/Graphics/SVG/1.1/DTD/svg11.dtd">
<svg version="1.1" id="svg2816" xmlns:svg="http://www.w3.org/2000/svg"
	 xmlns="http://www.w3.org/2000/svg" xmlns:xlink="http://www.w3.org/1999/xlink" x="0px" y="0px" width="200px" height="200px"
	 viewBox="-9.5 -9.2 200 200" enable-background="new -9.5 -9.2 200 200" xml:space="preserve">
<path fill="#397844" d="M90.5,0.8c49.6,0,90,40.4,90,90s-40.4,90-90,90s-90-40.4-90-90S40.9,0.8,90.5,0.8 M90.5-9.2
	c-55.2,0-100,44.8-100,100c0,55.2,44.8,100,100,100c55.2,0,100-44.8,100-100C190.5,35.6,145.7-9.2,90.5-9.2L90.5-9.2z"/>
<linearGradient id="path2846_1_" gradientUnits="userSpaceOnUse" x1="27.4111" y1="-312.748" x2="28.0674" y2="-312.748" gradientTransform="matrix(0 -168.4406 168.4406 0 52765.8008 4758.8604)">
	<stop  offset="0" style="stop-color:#EA5F29"/>
	<stop  offset="1" style="stop-color:#FABD1F"/>
</linearGradient>
<path id="path2846" fill="url(#path2846_1_)" d="M73.8,31.2c-28.2,0-42.6,16.3-42.6,46.7l0,0v21.3v42.6L58.7,114V81.6
	c0-12.6,3.3-20.6,14.5-22.4l0,0c3.9-0.8,12-0.5,17.2-0.5l0,0v19.3c0,0.2,0,0.5,0.1,0.7l0,0c0.2,0.8,0.9,1.4,1.8,1.4l0,0
	c0.5,0,0.9-0.3,1.4-0.7l0,0l48-48h-32.1H73.8L73.8,31.2z"/>
<linearGradient id="path2866_1_" gradientUnits="userSpaceOnUse" x1="42.7412" y1="-314.5068" x2="43.3979" y2="-314.5068" gradientTransform="matrix(0 168.4399 -168.4399 0 -52880.7969 -7159.5923)">
	<stop  offset="0" style="stop-color:#ABD33C"/>
	<stop  offset="1" style="stop-color:#6CB02F"/>
</linearGradient>
<path id="path2866" fill="url(#path2866_1_)" d="M122.3,67.5v32.4c0,12.6-3.3,20.6-14.5,22.4l0,0c-3.9,0.8-12,0.5-17.2,0.5l0,0
	v-19.2c0-0.2,0-0.5-0.1-0.7l0,0c-0.2-0.8-0.9-1.4-1.8-1.4l0,0c-0.5,0-0.9,0.3-1.4,0.7l0,0l-48,48h32.1h35.7
	c28.2,0,42.6-16.3,42.6-46.7l0,0V82.3V39.8L122.3,67.5z"/>
</svg>
