<?xml version="1.0" encoding="utf-8"?>
<!-- Generator: Adobe Illustrator 16.0.0, SVG Export Plug-In . SVG Version: 6.00 Build 0)  -->
<!DOCTYPE svg PUBLIC "-//W3C//DTD SVG 1.1//EN" "http://www.w3.org/Graphics/SVG/1.1/DTD/svg11.dtd">
<svg version="1.1" id="svg2816" xmlns:svg="http://www.w3.org/2000/svg"
	 xmlns="http://www.w3.org/2000/svg" xmlns:xlink="http://www.w3.org/1999/xlink" x="0px" y="0px" width="181px" height="181.6px"
	 viewBox="4.3 9.2 181 181.6" enable-background="new 4.3 9.2 181 181.6" xml:space="preserve">
<g id="g2828" transform="translate(3.4274813,7.3601302)">
	<g id="g2830">
		<g id="g2836">
			<g id="g2838">
				
					<linearGradient id="path2846_1_" gradientUnits="userSpaceOnUse" x1="223.9851" y1="-10.6919" x2="224.9856" y2="-10.6919" gradientTransform="matrix(0 -168.4406 168.4406 0 1886.1555 37898.5039)">
					<stop  offset="0" style="stop-color:#EA5F29"/>
					<stop  offset="1" style="stop-color:#FABD1F"/>
				</linearGradient>
				<path id="path2846" fill="url(#path2846_1_)" d="M65.9,1.8c-43,0-65,24.8-65,71.2l0,0v32.4v64.9L43,128V78.6
					c0-19.2,5.1-31.4,22.1-34.2l0,0c6-1.2,18.3-0.8,26.2-0.8l0,0V73c0,0.3,0,0.7,0.1,1l0,0c0.3,1.2,1.4,2.1,2.7,2.1l0,0
					c0.7,0,1.4-0.4,2.1-1.1l0,0l73.1-73.2h-49H65.9z"/>
			</g>
		</g>
	</g>
</g>
<g id="g2848" transform="translate(3.4274813,7.3601302)">
	<g id="g2850">
		<g id="g2856">
			<g id="g2858">
				
					<linearGradient id="path2866_1_" gradientUnits="userSpaceOnUse" x1="231.7048" y1="-7.7071" x2="232.7058" y2="-7.7071" gradientTransform="matrix(0 168.4399 -168.4399 0 -1200.571 -39013.543)">
					<stop  offset="0" style="stop-color:#ABD33C"/>
					<stop  offset="1" style="stop-color:#6CB02F"/>
				</linearGradient>
				<path id="path2866" fill="url(#path2866_1_)" d="M139.8,57.1v49.4c0,19.2-5.1,31.4-22.1,34.2l0,0c-6,1.2-18.3,0.8-26.2,0.8l0,0
					v-29.3c0-0.3,0-0.7-0.1-1l0,0c-0.3-1.2-1.4-2.1-2.7-2.1l0,0c-0.7,0-1.4,0.4-2.1,1.1l0,0l-73.1,73.2h49h54.4
					c43,0,65-24.8,65-71.2l0,0V79.7V14.8L139.8,57.1z"/>
			</g>
		</g>
	</g>
</g>
</svg>
