<?xml version="1.0" encoding="utf-8"?>
<!-- Generator: Adobe Illustrator 16.0.0, SVG Export Plug-In . SVG Version: 6.00 Build 0)  -->
<!DOCTYPE svg PUBLIC "-//W3C//DTD SVG 1.1//EN" "http://www.w3.org/Graphics/SVG/1.1/DTD/svg11.dtd">
<svg version="1.1" id="svg2816" xmlns:svg="http://www.w3.org/2000/svg"
	 xmlns="http://www.w3.org/2000/svg" xmlns:xlink="http://www.w3.org/1999/xlink" x="0px" y="0px" width="200px" height="200px"
	 viewBox="-9.5 -9.2 200 200" enable-background="new -9.5 -9.2 200 200" xml:space="preserve">
<path fill="#DC4A38" d="M90.5-9.2c-55.2,0-100,44.8-100,100c0,55.2,44.8,100,100,100s100-44.8,100-100
	C190.5,35.6,145.7-9.2,90.5-9.2L90.5-9.2z M90.5,0.8c49.6,0,90,40.4,90,90c0,49.6-40.4,90-90,90c-49.6,0-90-40.4-90-90
	C0.5,41.2,40.9,0.8,90.5,0.8"/>
<path fill="#DC4A38" d="M103.7,104.9l-5.4-4.2c-1.6-1.4-3.9-3.1-3.9-6.4c0-3.3,2.2-5.4,4.2-7.3c6.3-4.9,12.5-10.2,12.5-21.2
	c0-11.4-7.1-17.3-10.6-20.2h9.2l9.7-6.1H90.1c-8.1,0-19.7,1.9-28.2,8.9c-6.4,5.5-9.5,13.1-9.5,20c0,11.6,8.9,23.4,24.7,23.4
	c1.5,0,3.1-0.1,4.8-0.3c-0.7,1.8-1.5,3.3-1.5,5.8c0,4.6,2.4,7.5,4.5,10.1c-6.7,0.5-19.2,1.2-28.5,6.9c-8.8,5.2-11.5,12.8-11.5,18.2
	c0,11.1,10.4,21.3,32,21.3c25.6,0,39.2-14.2,39.2-28.2C116.2,115.5,110.2,110.4,103.7,104.9z M84.2,87.7
	c-12.8,0-18.6-16.6-18.6-26.6c0-3.9,0.7-7.9,3.3-11c2.4-3,6.6-4.9,10.4-4.9C91.6,45.2,98,61.9,98,72.7c0,2.7-0.3,7.5-3.7,10.9
	C91.9,86,87.9,87.7,84.2,87.7z M84.3,147.8c-15.9,0-26.2-7.6-26.2-18.2c0-10.6,9.5-14.2,12.8-15.4c6.3-2.1,14.3-2.4,15.6-2.4
	c1.5,0,2.2,0,3.4,0.1c11.3,8.1,16.2,12.1,16.2,19.7C106.2,140.9,98.6,147.8,84.3,147.8z"/>
<polygon fill="#DC4A38" points="141.3,87.5 141.3,72.6 133.9,72.6 133.9,87.5 119,87.5 119,95 133.9,95 133.9,110 141.3,110 
	141.3,95 156.3,95 156.3,87.5 "/>
</svg>
