<?xml version="1.0" encoding="utf-8"?>
<!-- Generator: Adobe Illustrator 16.0.0, SVG Export Plug-In . SVG Version: 6.00 Build 0)  -->
<!DOCTYPE svg PUBLIC "-//W3C//DTD SVG 1.1//EN" "http://www.w3.org/Graphics/SVG/1.1/DTD/svg11.dtd">
<svg version="1.1" id="Layer_1" xmlns="http://www.w3.org/2000/svg" xmlns:xlink="http://www.w3.org/1999/xlink" x="0px" y="0px"
	 width="1294px" height="796.8px" viewBox="0 0 1294 796.8" enable-background="new 0 0 1294 796.8" xml:space="preserve">
<path opacity="0.5" fill-rule="evenodd" clip-rule="evenodd" fill="#FFA64D" d="M348.3,472.8c43.7-44.2,600-462.7,609.4-453.2
	C965,27,551.4,589.8,507.5,633.8c-43.8,44-114.8,43.6-158.7-0.8C304.9,588.6,304.7,516.9,348.3,472.8z"/>
<path opacity="0.3" fill-rule="evenodd" clip-rule="evenodd" fill="#FFA64D" d="M372.9,453.2c53.6-31.4,597.3-247,604-235.3
	c5.1,9.1-438.3,401.1-492,432.3c-53.6,31.2-122,12.3-152.8-42C301.1,553.9,319.4,484.5,372.9,453.2z"/>
<path opacity="0.3" fill-rule="evenodd" clip-rule="evenodd" fill="#FFA64D" d="M527,608.4C558.2,554.4,772,6.7,760.4,0
	c-9-5.2-398.1,441.6-429.1,495.7c-30.9,54-12.2,122.9,41.8,153.9C427.1,680.7,496,662.3,527,608.4z"/>
<path opacity="0.2" fill-rule="evenodd" clip-rule="evenodd" fill="#FFA64D" d="M399.1,441.6c59.9-16.3,562.2-78.5,565.7-65.6
	c2.7,10-448.4,268.5-508.4,284.8c-60,16.2-121.3-19.8-137-80.3C303.6,520.1,339.3,457.9,399.1,441.6z"/>
<path opacity="9.999999e-002" fill-rule="evenodd" clip-rule="evenodd" fill="#FFA64D" d="M399.1,441.6
	c59.9-16.3,465.8,75.4,469.2,88.2c2.7,10-352,114.7-412,130.9c-60,16.2-121.3-19.8-137-80.3C303.6,520.1,339.3,457.9,399.1,441.6z"
	/>
<path opacity="9.999999e-002" fill-rule="evenodd" clip-rule="evenodd" fill="#FFA64D" d="M538.5,582c16.2-60.3-75-469-87.8-472.5
	c-10-2.7-113.7,354.5-129.8,414.9c-16.1,60.4,19.7,122.1,79.8,137.9C460.7,678.1,522.4,642.2,538.5,582z"/>
<path opacity="0.2" fill-rule="evenodd" clip-rule="evenodd" fill="#FFA64D" d="M538.6,582c16.2-60.3,77.6-566.2,64.9-569.7
	C593.5,9.6,337.1,464,320.9,524.5c-16.1,60.4,19.7,122.1,79.8,137.9C460.7,678.2,522.4,642.2,538.6,582z"/>
<path fill-rule="evenodd" clip-rule="evenodd" fill="#333333" d="M746,560.8c-6,51-41,81-77,81c-18,0-33-7-33-27c0-55,65-48,94-54
	c4-1,11-1,16-2V560.8z M500,518.8c0,43-25,123-91,123c-33,0-52-23-52-52c0-3,4-27,6-41c7-53,42-86,86-86
	C487,462.8,500,488.8,500,518.8z M1043,425.8c0,2-5,29-8,42c-2,2-8,5-10,5c-3,0-4-4-6-4c-6-2-16-3-18-3c-45,0-65.1,66.8-72,95
	c-9.5,39.2-14,81-21,122h-45c-2-3-5-6-6-9l44-252h46c2,2,6,5,6,7c0,3-2,13-3,20c18-21,42-32,64-32C1018,416.8,1043,417.8,1043,425.8
	z M810,487.8c0,18-29,161-32,195h-45c-3-3-6-7-6-10c0-2,1-7,1-14c-24,21-50,30-74,30c-35,0-74-16-74-63c0-13,3-31,9-43
	c38-73,111-57,165-70c1,0,1-2,2-3v-22c-4-25-23-26-38-26c-2,0-16,0-23,2c-8,1-18,4-25,8c-12,5-30,19-33,19c-2,0-9-5-9-8
	c0-2,4-23,6-35c1-2,1-4,1-6c35-21,61-26,94-26C775,415.8,810,433.8,810,487.8z M555,511.8c0,73-45,177-147,177c-21,0-44-6-64-30
	l-26,138h-45c-2-3-5-6-5-9l64-366h46c1,7,5,4,5,9c0,3-2,12-2,19c26-27,58-34,84-34C529,415.8,555,457.8,555,511.8z M256,324.8
	c0,0,12,4,12,8c0,2-6,33-10,48c-2,2-7,5-9,5c-3,0-15-11-22-13c-22-8-30-7-48-7c-29,0-79,8-79,55c0,56,139,64,139,152c0,11-4,25-8,38
	c-23,64-95,78-139,78c-25,0-75-10-92-25l9-51c3,0,8-3,11-3c2,0,10,9,17,12c20,10,46,18,67,18c32,0,78-11,78-58c0-58-139-63-139-150
	s89-116,147-116C210,315.8,237,318.8,256,324.8z M1154,301.8c2,3,5,6,6,9l-37,212l1,1l113-102h53c2,3,3,7,4,10l-131,117l97,124
	c-1,3-3,7-5,10h-58l-82-110l-20,110h-45c-2-2-5-5-7-8l66-373H1154z"/>
</svg>
