<?xml version="1.0" encoding="utf-8"?>
<!-- Generator: Adobe Illustrator 16.0.0, SVG Export Plug-In . SVG Version: 6.00 Build 0)  -->
<!DOCTYPE svg PUBLIC "-//W3C//DTD SVG 1.1//EN" "http://www.w3.org/Graphics/SVG/1.1/DTD/svg11.dtd">
<svg version="1.1"
	 id="svg2" xmlns:svg="http://www.w3.org/2000/svg" xmlns:rdf="http://www.w3.org/1999/02/22-rdf-syntax-ns#" xmlns:dc="http://purl.org/dc/elements/1.1/" xmlns:sodipodi="http://sodipodi.sourceforge.net/DTD/sodipodi-0.dtd" xmlns:osb="http://www.openswatchbook.org/uri/2009/osb" xmlns:cc="http://creativecommons.org/ns#" xmlns:inkscape="http://www.inkscape.org/namespaces/inkscape" inkscape:version="0.48.0 r9654" sodipodi:docname="Like.svg.2011_10_09_19_35_59.0.svg"
	 xmlns="http://www.w3.org/2000/svg" xmlns:xlink="http://www.w3.org/1999/xlink" x="0px" y="0px" width="200px" height="200px"
	 viewBox="40 -59.8 200 200" enable-background="new 40 -59.8 200 200" xml:space="preserve">
<path fill="#2AA9E0" d="M140-49.8c49.6,0,90,40.4,90,90s-40.4,90-90,90c-49.6,0-90-40.4-90-90S90.4-49.8,140-49.8 M140-59.8
	C84.8-59.8,40-15,40,40.3s44.8,100,100,100c55.2,0,100-44.8,100-100S195.3-59.8,140-59.8L140-59.8z"/>
<path id="path5" inkscape:connector-curvature="0" fill="#2AA9E0" d="M199.1,8.6c-4.3,1.9-9,3.2-13.9,3.8c5-3,8.8-7.7,10.7-13.4
	c-4.7,2.8-9.9,4.8-15.4,5.9c-4.4-4.7-10.7-7.7-17.7-7.7c-13.4,0-24.2,10.9-24.2,24.2c0,1.9,0.2,3.7,0.6,5.5c-20.1-1-38-10.7-50-25.3
	c-2.1,3.6-3.3,7.7-3.3,12.2c0,8.4,4.3,15.8,10.8,20.2c-4-0.1-7.7-1.2-11-3c0,0.1,0,0.2,0,0.3c0,11.7,8.4,21.5,19.4,23.8
	c-2,0.6-4.2,0.8-6.4,0.8c-1.6,0-3.1-0.2-4.6-0.4c3.1,9.6,12,16.6,22.6,16.8c-8.3,6.5-18.7,10.4-30.1,10.4c-2,0-3.9-0.1-5.8-0.3
	c10.7,6.9,23.5,10.9,37.1,10.9c44.6,0,69-36.9,69-69c0-1.1,0-2.1-0.1-3.1C191.7,17.7,195.8,13.5,199.1,8.6L199.1,8.6z"/>
</svg>
